<svg viewBox="0 0 125.37 81.68" xmlns="http://www.w3.org/2000/svg"><defs><style>.cls-1{fill:#00bced;}.cls-1,.cls-2,.cls-3,.cls-4{fill-rule:evenodd;}.cls-2{fill:#f4fcff;}.cls-3{fill:#b3e9fe;}.cls-4{fill:#41d8ff;}</style></defs><title>资源 4</title><g id="图层_2"><g id="图层_1-2"><path d="M71.39,12A17.41,17.41,0,0,0,54,12L2.18,41.91a4.35,4.35,0,0,0,0,7.54L54,79.35a17.41,17.41,0,0,0,17.41,0l51.8-29.9a4.36,4.36,0,0,0,0-7.54Z" class="cls-1"></path><polygon points="113.05 28.8 125.37 35.91 125.37 45.78 113.05 38.66 113.05 28.8" class="cls-1"></polygon><polygon points="0.02 35.9 12.34 43.01 12.34 52.87 0.02 45.76 0.02 35.9" class="cls-1"></polygon><path d="M71.4,2.33A17.43,17.43,0,0,0,54,2.33L2.18,32.24a4.36,4.36,0,0,0,0,7.54L54,69.68a17.38,17.38,0,0,0,17.42,0l51.79-29.9a4.35,4.35,0,0,0,0-7.54Z" class="cls-2"></path><path d="M55.28,10.59h0L12.64,35.2a1.75,1.75,0,0,0,0,3l48.44,28a3.49,3.49,0,0,0,3.48,0l40.9-23.61a1.75,1.75,0,0,0,.87-1.51,1.73,1.73,0,0,0-.87-1.51L86,28.34a1.27,1.27,0,0,1-.64-1.11c0-1.92,0-6.95,0-6.95a1.74,1.74,0,0,0-.87-1.51l-20.84-12a1.74,1.74,0,0,0-1.74,0Z" class="cls-3"></path><polygon points="66.78 27.01 67.98 26.31 67.98 31.97 66.78 32.66 66.78 27.01" class="cls-1"></polygon><path d="M60.8,31.59a11.69,11.69,0,0,1,10.56,0c2.91,1.68,2.91,4.41,0,6.09a11.63,11.63,0,0,1-10.56,0C57.89,36,57.89,33.27,60.8,31.59Zm.66,1.13a10.25,10.25,0,0,1,9.25,0c1,.55,1.53,1.19,1.53,1.92s-.58,1.36-1.53,1.91a10.19,10.19,0,0,1-9.25,0c-1-.55-1.54-1.19-1.54-1.91S60.5,33.27,61.46,32.72Z" class="cls-1"></path><polygon points="67.7 26.44 72.52 29.22 72.52 34.3 67.7 31.52 67.7 26.44" class="cls-1"></polygon><polygon points="72.38 29.57 73.55 30.25 73.55 34.86 72.38 34.19 72.38 29.57" class="cls-1"></polygon><polygon points="61.15 28.5 65.2 26.16 72.81 30.55 68.75 32.88 61.15 28.5" class="cls-1"></polygon><path d="M60.8,27.27a11.69,11.69,0,0,1,10.56,0c2.91,1.68,2.91,4.41,0,6.09a11.69,11.69,0,0,1-10.56,0C57.89,31.68,57.89,29,60.8,27.27Zm.66,1.13a10.19,10.19,0,0,1,9.25,0c1,.55,1.53,1.19,1.53,1.92s-.58,1.36-1.53,1.91a10.19,10.19,0,0,1-9.25,0c-1-.55-1.54-1.19-1.54-1.92S60.5,29,61.46,28.4Z" class="cls-4"></path><path d="M60.79,31a3.46,3.46,0,0,0-3.49,0L46.58,37.23a1.75,1.75,0,0,0,0,3l10.73,6.19a3.49,3.49,0,0,0,3.48,0l10.73-6.19a1.75,1.75,0,0,0,0-3Z" class="cls-1"></path><polygon points="67.69 31.53 72.39 34.25 72.39 38.7 67.69 35.99 67.69 31.53" class="cls-1"></polygon><polygon points="45.72 34.43 50.41 37.15 50.41 41.6 45.72 38.89 45.72 34.43" class="cls-1"></polygon><path d="M60.79,26.71a3.51,3.51,0,0,0-3.49,0l-10.72,6.2a1.74,1.74,0,0,0,0,3l10.73,6.2a3.49,3.49,0,0,0,3.48,0l10.73-6.19a1.75,1.75,0,0,0,0-3Z" class="cls-4"></path></g></g></svg>